<svg width="32" height="32" viewBox="0 0 32 32" fill="none" xmlns="http://www.w3.org/2000/svg">
<path d="M9.33332 22.6667C10.8693 22.6647 12.3575 22.133 13.5472 21.1615C14.7368 20.19 15.5551 18.8379 15.864 17.3334H18.6667V20H21.3333V17.3334H24V21.3334H26.6667V17.3334H28V14.6667H15.864C15.5551 13.1621 14.7368 11.8101 13.5472 10.8386C12.3575 9.86704 10.8693 9.33543 9.33332 9.33337C5.65732 9.33337 2.66666 12.324 2.66666 16C2.66666 19.676 5.65732 22.6667 9.33332 22.6667ZM9.33332 12C11.5387 12 13.3333 13.7947 13.3333 16C13.3333 18.2054 11.5387 20 9.33332 20C7.12799 20 5.33332 18.2054 5.33332 16C5.33332 13.7947 7.12799 12 9.33332 12Z" fill="#52AEEB"/>
</svg>
