<svg width="32" height="32" viewBox="0 0 32 32" fill="none" xmlns="http://www.w3.org/2000/svg">
<path d="M16 29.3333C21.1453 29.3333 25.3333 25.1453 25.3333 20C25.3333 14.8546 21.1453 10.6666 16 10.6666C10.8533 10.6666 6.66667 14.8546 6.66667 20C6.66667 25.1453 10.8533 29.3333 16 29.3333ZM16 13.3333C19.676 13.3333 22.6667 16.324 22.6667 20C22.6667 23.676 19.676 26.6666 16 26.6666C12.324 26.6666 9.33334 23.676 9.33334 20C9.33334 16.324 12.324 13.3333 16 13.3333ZM14.6667 2.66663H9.33334V10.024C10.9289 8.95626 12.7584 8.28896 14.6667 8.07863V2.66663ZM22.6667 2.66663H17.3333V8.07863C19.2416 8.28896 21.0711 8.95626 22.6667 10.024V2.66663Z" fill="#52AEEB"/>
<path d="M13.3587 21.0813L12.7347 24.716L16 23L19.2653 24.716L18.6413 21.0813L21.284 18.5053L17.6333 17.9746L16 14.6666L14.3667 17.9746L10.716 18.5053L13.3587 21.0813Z" fill="#52AEEB"/>
</svg>
