<svg width="24" height="24" viewBox="0 0 24 24" fill="none" xmlns="http://www.w3.org/2000/svg">
<path d="M19.633 7.978C19.646 8.153 19.646 8.327 19.646 8.501C19.646 13.826 15.593 19.962 8.186 19.962C5.904 19.962 3.784 19.301 2 18.153C2.324 18.19 2.636 18.203 2.973 18.203C4.78599 18.2074 6.54765 17.6011 7.974 16.482C7.13342 16.4668 6.31858 16.1895 5.64324 15.6887C4.9679 15.188 4.46578 14.4889 4.207 13.689C4.456 13.726 4.706 13.751 4.968 13.751C5.329 13.751 5.692 13.701 6.029 13.614C5.11676 13.4298 4.29647 12.9353 3.70762 12.2147C3.11876 11.494 2.79769 10.5916 2.799 9.661V9.611C3.336 9.91 3.959 10.097 4.619 10.122C4.06609 9.75459 3.61272 9.25602 3.29934 8.67079C2.98596 8.08556 2.82231 7.43186 2.823 6.768C2.823 6.02 3.022 5.334 3.371 4.736C4.38314 5.98102 5.6455 6.99956 7.07634 7.72566C8.50717 8.45176 10.0746 8.86922 11.677 8.951C11.615 8.651 11.577 8.34 11.577 8.028C11.5767 7.49896 11.6807 6.97506 11.8831 6.48624C12.0854 5.99742 12.3821 5.55327 12.7562 5.17919C13.1303 4.8051 13.5744 4.50841 14.0632 4.30608C14.5521 4.10375 15.076 3.99974 15.605 4C16.765 4 17.812 4.486 18.548 5.272C19.4498 5.09762 20.3145 4.76842 21.104 4.299C20.8034 5.22982 20.1738 6.0191 19.333 6.519C20.1328 6.42778 20.9144 6.21745 21.652 5.895C21.1011 6.6981 20.4185 7.40235 19.633 7.978Z" fill="white"/>
</svg>
