<svg width="32" height="32" viewBox="0 0 32 32" fill="none" xmlns="http://www.w3.org/2000/svg">
<path d="M28.6453 9.50003L16.616 2.83337C16.4183 2.72447 16.1963 2.66736 15.9707 2.66736C15.745 2.66736 15.523 2.72447 15.3253 2.83337L3.35467 9.4467C3.14672 9.56185 2.97333 9.7305 2.85246 9.93519C2.7316 10.1399 2.66765 10.3731 2.66724 10.6109C2.66683 10.8486 2.72998 11.0821 2.85014 11.2872C2.9703 11.4923 3.14311 11.6615 3.35067 11.7774L15.38 18.4974C15.578 18.6086 15.8013 18.6672 16.0285 18.6674C16.2557 18.6677 16.4791 18.6096 16.6773 18.4987L28.648 11.832C28.856 11.7164 29.0292 11.5472 29.1497 11.342C29.2702 11.1369 29.3336 10.9032 29.3333 10.6652C29.333 10.4273 29.2691 10.1938 29.1481 9.98888C29.0271 9.78399 28.8535 9.6152 28.6453 9.50003Z" fill="#52AEEB"/>
<path d="M16 21.1414L4.64666 14.8347L3.35199 17.1654L15.352 23.832C15.55 23.942 15.7728 23.9997 15.9993 23.9997C16.2258 23.9997 16.4486 23.942 16.6467 23.832L28.6467 17.1654L27.352 14.8347L16 21.1414Z" fill="#52AEEB"/>
<path d="M16 26.4746L4.64666 20.168L3.35199 22.4986L15.352 29.1653C15.55 29.2753 15.7728 29.333 15.9993 29.333C16.2258 29.333 16.4486 29.2753 16.6467 29.1653L28.6467 22.4986L27.352 20.168L16 26.4746Z" fill="#52AEEB"/>
</svg>
