<svg width="32" height="32" viewBox="0 0 32 32" fill="none" xmlns="http://www.w3.org/2000/svg">
<path d="M23.6347 17.36L18.6667 21.3333H12V20H17.42C17.5406 19.9999 17.6589 19.9672 17.7623 19.9052C17.8658 19.8432 17.9505 19.7543 18.0074 19.648C18.0643 19.5417 18.0913 19.4219 18.0856 19.3015C18.0798 19.181 18.0415 19.0644 17.9747 18.964L16.7907 17.188C16.5478 16.8224 16.2182 16.5226 15.8313 16.3153C15.4444 16.108 15.0122 15.9997 14.5733 16H3.99999C3.64637 16 3.30723 16.1405 3.05718 16.3905C2.80713 16.6406 2.66666 16.9797 2.66666 17.3333V25.3333C2.66666 26.0406 2.94761 26.7189 3.4477 27.219C3.9478 27.719 4.62608 28 5.33332 28H18.1853C18.7555 28.0001 19.3191 27.8784 19.8383 27.6429C20.3575 27.4074 20.8205 27.0637 21.196 26.6347L29.3333 17.3333L27.3973 16.688C26.7639 16.4769 26.0877 16.4278 25.4305 16.5451C24.7732 16.6625 24.1558 16.9427 23.6347 17.36ZM25.6773 9.85333C26.2787 9.23333 26.6507 8.376 26.6507 7.42933C26.6507 6.48267 26.2787 5.62533 25.6773 5.00533C25.3732 4.68797 25.0081 4.43533 24.6039 4.26257C24.1998 4.08981 23.7649 4.0005 23.3253 4C23.3253 4 21.6667 3.996 20 5.71467C18.3333 3.996 16.6747 4 16.6747 4C16.2352 4.00056 15.8005 4.08976 15.3963 4.26228C14.9922 4.43479 14.627 4.68706 14.3227 5.004C13.7213 5.62533 13.3493 6.48133 13.3493 7.428C13.3493 8.37467 13.7213 9.23333 14.3227 9.852L20 16L25.6773 9.85333Z" fill="#52AEEB"/>
</svg>
