<svg width="32" height="32" viewBox="0 0 32 32" fill="none" xmlns="http://www.w3.org/2000/svg">
<path d="M26 3.99996C25.1162 4.00067 24.2687 4.35208 23.6438 4.97705C23.0188 5.60202 22.6674 6.44946 22.6667 7.33329C22.6667 7.80929 22.7707 8.26129 22.952 8.67329L20.3453 11.6053C19.4598 10.9941 18.4093 10.6667 17.3333 10.6666C16.3467 10.6666 15.4347 10.9546 14.6413 11.4213L11.6093 8.39063L11.5787 8.42129C11.84 7.89063 12 7.29996 12 6.66663C12 5.8755 11.7654 5.10214 11.3259 4.44435C10.8864 3.78655 10.2616 3.27386 9.53074 2.97111C8.79983 2.66836 7.99556 2.58915 7.21964 2.74349C6.44372 2.89783 5.73098 3.27879 5.17157 3.8382C4.61216 4.39761 4.2312 5.11034 4.07686 5.88627C3.92252 6.66219 4.00173 7.46646 4.30448 8.19736C4.60723 8.92827 5.11992 9.55298 5.77772 9.99251C6.43552 10.432 7.20888 10.6666 8 10.6666C8.63334 10.6666 9.22267 10.5066 9.75467 10.2453L9.724 10.276L12.756 13.3066C12.2662 14.12 12.005 15.0505 12 16C12 17.3293 12.5067 18.532 13.3133 19.468L9.87734 22.9026C9.49223 22.7485 9.08148 22.6684 8.66667 22.6666C6.82934 22.6666 5.33334 24.1613 5.33334 26C5.33334 27.8386 6.82934 29.3333 8.66667 29.3333C10.504 29.3333 12 27.8386 12 26C12 25.572 11.912 25.1653 11.764 24.788L15.548 21.004C16.1093 21.204 16.704 21.3333 17.3333 21.3333C20.2747 21.3333 22.6667 18.9413 22.6667 16C22.6667 15.152 22.4493 14.3613 22.096 13.648L24.9187 10.4706C25.26 10.588 25.62 10.6666 26 10.6666C27.8387 10.6666 29.3333 9.17196 29.3333 7.33329C29.3333 5.49463 27.8387 3.99996 26 3.99996ZM17.3333 18.6666C15.8627 18.6666 14.6667 17.4706 14.6667 16C14.6667 14.5293 15.8627 13.3333 17.3333 13.3333C18.804 13.3333 20 14.5293 20 16C20 17.4706 18.804 18.6666 17.3333 18.6666Z" fill="#52AEEB"/>
</svg>
