<svg width="32" height="32" viewBox="0 0 32 32" fill="none" xmlns="http://www.w3.org/2000/svg">
<path d="M22.8907 10.6666H17.3333L18.408 4.21996C18.44 4.02882 18.4299 3.83302 18.3785 3.64617C18.3271 3.45933 18.2355 3.28594 18.1103 3.13808C17.985 2.99022 17.829 2.87144 17.6531 2.79002C17.4773 2.7086 17.2858 2.66649 17.092 2.66663H10.2227C9.90725 2.66672 9.60208 2.77863 9.36138 2.98246C9.12068 3.1863 8.96004 3.46887 8.908 3.77996L6.68533 17.1133C6.65337 17.3043 6.66341 17.5 6.71476 17.6868C6.7661 17.8735 6.85752 18.0468 6.98264 18.1947C7.10776 18.3425 7.26359 18.4613 7.43928 18.5428C7.61498 18.6243 7.80632 18.6666 8 18.6666H13.3333V29.3333L24.0133 12.7213C24.1429 12.5198 24.2159 12.2871 24.2244 12.0477C24.233 11.8082 24.1769 11.5709 24.062 11.3606C23.9471 11.1504 23.7777 10.975 23.5716 10.8528C23.3655 10.7307 23.1303 10.6664 22.8907 10.6666Z" fill="#52AEEB"/>
</svg>
